<svg xmlns="http://www.w3.org/2000/svg" width="242.7" height="242.7" viewBox="0 0 242.7 242.7"><circle cx="37.2" cy="42.6" r="34.6" fill="#673200"/><circle cx="39.7" cy="51.3" r="14.8" fill="#ffaaca"/><circle cx="205.4" cy="42.6" r="34.6" fill="#673200"/><circle cx="203" cy="51.3" r="14.8" fill="#ffaaca"/><circle cx="121.3" cy="126.6" r="108.1" fill="#673200"/><path fill="#c65b00" d="M167.3 28.7a65.6 65.6 0 0 0 61 113.3 108.2 108.2 0 0 0-61-113.3zM13.2 126.6a109 109 0 0 0 1.1 15.4 65.6 65.6 0 0 0 61-113.3 108.1 108.1 0 0 0-62.1 97.9z"/><circle cx="121.3" cy="166.1" r="42.3" fill="#c65b00"/><path fill="none" stroke="#000" stroke-linecap="round" stroke-linejoin="round" stroke-width="3" d="M94.6 180.4a37.2 37.2 0 0 0 52.7 0"/><circle cx="121.3" cy="131.4" r="13" fill="#ffaaca"/><circle cx="164.6" cy="99.8" r="9.3"/><circle cx="78.1" cy="99.8" r="9.3"/></svg>